<?xml version="1.0" standalone="no"?><svg xmlns:xlink="http://www.w3.org/1999/xlink" xmlns="http://www.w3.org/2000/svg" viewBox="0 0 1500 900.0004972378438" preserveAspectRatio="xMaxYMax slice"><g transform="scale(2.4861892188890713)"><rect x="0" y="0" width="603.3333333333334" height="362" fill="white" stroke="none" stroke-width="2"/><rect x="301.6666666666667" y="0" width="60.333333333333336" height="60.333333333333336" fill="white" stroke="none" stroke-width="2"/><rect x="482.6666666666667" y="0" width="60.333333333333336" height="60.333333333333336" fill="white" stroke="none" stroke-width="2"/><g transform="translate(482.67,0) scale(1.5085000000000002) rotate(0)"><path d="M10 5L5 0L0 5L5 10L0 15L5 20L10 15L15 20L20 15L15 10L20 5L15 0L10 5Z" fill="none" stroke="black" stroke-width="1.325820351342393"/></g><g transform="translate(482.67,30.17) scale(1.5085000000000002) rotate(0)"><path d="M10 5L5 0L0 5L5 10L0 15L5 20L10 15L15 20L20 15L15 10L20 5L15 0L10 5Z" fill="none" stroke="black" stroke-width="1.325820351342393"/></g><rect x="301.6666666666667" y="60.333333333333336" width="60.333333333333336" height="60.333333333333336" fill="white" stroke="none" stroke-width="2"/><g transform="translate(301.67,60.33) scale(1.5085000000000002) rotate(0)"><path d="M10 5L5 0L0 5L5 10L0 15L5 20L10 15L15 20L20 15L15 10L20 5L15 0L10 5Z" fill="none" stroke="black" stroke-width="1.325820351342393"/></g><g transform="translate(331.83,90.5) scale(1.5085000000000002) rotate(0)"><path fill-rule="evenodd" clip-rule="evenodd" d="M10 20C15.5228 20 20 15.5228 20 10C20 4.47715 15.5228 0 10 0C4.47715 0 0 4.47715 0 10C0 15.5228 4.47715 20 10 20ZM10 17C13.866 17 17 13.866 17 10C17 6.13401 13.866 3 10 3C6.13401 3 3 6.13401 3 10C3 13.866 6.13401 17 10 17Z" fill="none" stroke="black" stroke-width="1.325820351342393"/></g><g transform="translate(362,60.33) scale(3.0164999999999997) rotate(0)"><path fill-rule="evenodd" clip-rule="evenodd" d="M10 20C15.5228 20 20 15.5228 20 10C20 4.47715 15.5228 0 10 0C4.47715 0 0 4.47715 0 10C0 15.5228 4.47715 20 10 20ZM10 17C13.866 17 17 13.866 17 10C17 6.13401 13.866 3 10 3C6.13401 3 3 6.13401 3 10C3 13.866 6.13401 17 10 17Z" fill="none" stroke="black" stroke-width="0.6630200563567048"/></g><rect x="0" y="120.66666666666667" width="60.333333333333336" height="60.333333333333336" fill="white" stroke="none" stroke-width="2"/><g transform="translate(0,120.67) scale(1.5085000000000002) rotate(0)"><path fill-rule="evenodd" clip-rule="evenodd" d="M10 20C15.5228 20 20 15.5228 20 10C20 4.47715 15.5228 0 10 0C4.47715 0 0 4.47715 0 10C0 15.5228 4.47715 20 10 20ZM10 17C13.866 17 17 13.866 17 10C17 6.13401 13.866 3 10 3C6.13401 3 3 6.13401 3 10C3 13.866 6.13401 17 10 17Z" fill="none" stroke="black" stroke-width="1.325820351342393"/></g><g transform="translate(0,150.83) scale(1.5085000000000002) rotate(0)"><path fill-rule="evenodd" clip-rule="evenodd" d="M10 20C15.5228 20 20 15.5228 20 10C20 4.47715 15.5228 0 10 0C4.47715 0 0 4.47715 0 10C0 15.5228 4.47715 20 10 20ZM10 17C13.866 17 17 13.866 17 10C17 6.13401 13.866 3 10 3C6.13401 3 3 6.13401 3 10C3 13.866 6.13401 17 10 17Z" fill="none" stroke="black" stroke-width="1.325820351342393"/></g><g transform="translate(30.17,150.83) scale(1.5085000000000002) rotate(0)"><path fill-rule="evenodd" clip-rule="evenodd" d="M10 20C15.5228 20 20 15.5228 20 10C20 4.47715 15.5228 0 10 0C4.47715 0 0 4.47715 0 10C0 15.5228 4.47715 20 10 20ZM10 17C13.866 17 17 13.866 17 10C17 6.13401 13.866 3 10 3C6.13401 3 3 6.13401 3 10C3 13.866 6.13401 17 10 17Z" fill="none" stroke="black" stroke-width="1.325820351342393"/></g><g transform="translate(181,120.67) scale(3.0164999999999997) rotate(0)"><path d="M10 5L5 0L0 5L5 10L0 15L5 20L10 15L15 20L20 15L15 10L20 5L15 0L10 5Z" fill="none" stroke="black" stroke-width="0.6630200563567048"/></g><rect x="241.33333333333334" y="120.66666666666667" width="60.333333333333336" height="60.333333333333336" fill="white" stroke="none" stroke-width="2"/><g transform="translate(271.5,120.67) scale(1.5085000000000002) rotate(0)"><path fill-rule="evenodd" clip-rule="evenodd" d="M10 20C15.5228 20 20 15.5228 20 10C20 4.47715 15.5228 0 10 0C4.47715 0 0 4.47715 0 10C0 15.5228 4.47715 20 10 20ZM10 17C13.866 17 17 13.866 17 10C17 6.13401 13.866 3 10 3C6.13401 3 3 6.13401 3 10C3 13.866 6.13401 17 10 17Z" fill="none" stroke="black" stroke-width="1.325820351342393"/></g><g transform="translate(301.67,120.67) scale(3.0164999999999997) rotate(0)"><path fill-rule="evenodd" clip-rule="evenodd" d="M10 20C15.5228 20 20 15.5228 20 10C20 4.47715 15.5228 0 10 0C4.47715 0 0 4.47715 0 10C0 15.5228 4.47715 20 10 20ZM10 17C13.866 17 17 13.866 17 10C17 6.13401 13.866 3 10 3C6.13401 3 3 6.13401 3 10C3 13.866 6.13401 17 10 17Z" fill="none" stroke="black" stroke-width="0.6630200563567048"/></g><rect x="422.33333333333337" y="120.66666666666667" width="60.333333333333336" height="60.333333333333336" fill="white" stroke="none" stroke-width="2"/><g transform="translate(422.33,120.67) scale(1.5085000000000002) rotate(0)"><path d="M10 5L5 0L0 5L5 10L0 15L5 20L10 15L15 20L20 15L15 10L20 5L15 0L10 5Z" fill="none" stroke="black" stroke-width="1.325820351342393"/></g><g transform="translate(422.33,150.83) scale(1.5085000000000002) rotate(0)"><path d="M10 5L5 0L0 5L5 10L0 15L5 20L10 15L15 20L20 15L15 10L20 5L15 0L10 5Z" fill="none" stroke="black" stroke-width="1.325820351342393"/></g><rect x="482.6666666666667" y="120.66666666666667" width="60.333333333333336" height="60.333333333333336" fill="white" stroke="none" stroke-width="2"/><g transform="translate(482.67,150.83) scale(1.5085000000000002) rotate(0)"><path fill-rule="evenodd" clip-rule="evenodd" d="M10 20C15.5228 20 20 15.5228 20 10C20 4.47715 15.5228 0 10 0C4.47715 0 0 4.47715 0 10C0 15.5228 4.47715 20 10 20ZM10 17C13.866 17 17 13.866 17 10C17 6.13401 13.866 3 10 3C6.13401 3 3 6.13401 3 10C3 13.866 6.13401 17 10 17Z" fill="none" stroke="black" stroke-width="1.325820351342393"/></g><g transform="translate(60.33,181) scale(3.0164999999999997) rotate(0)"><path d="M10 5L5 0L0 5L5 10L0 15L5 20L10 15L15 20L20 15L15 10L20 5L15 0L10 5Z" fill="none" stroke="black" stroke-width="0.6630200563567048"/></g><g transform="translate(120.67,181) scale(3.0164999999999997) rotate(0)"><path fill-rule="evenodd" clip-rule="evenodd" d="M10 20C15.5228 20 20 15.5228 20 10C20 4.47715 15.5228 0 10 0C4.47715 0 0 4.47715 0 10C0 15.5228 4.47715 20 10 20ZM10 17C13.866 17 17 13.866 17 10C17 6.13401 13.866 3 10 3C6.13401 3 3 6.13401 3 10C3 13.866 6.13401 17 10 17Z" fill="none" stroke="black" stroke-width="0.6630200563567048"/></g><g transform="translate(181,181) scale(3.0164999999999997) rotate(0)"><path d="M10 5L5 0L0 5L5 10L0 15L5 20L10 15L15 20L20 15L15 10L20 5L15 0L10 5Z" fill="none" stroke="black" stroke-width="0.6630200563567048"/></g><g transform="translate(543,181) scale(3.0164999999999997) rotate(0)"><path d="M10 5L5 0L0 5L5 10L0 15L5 20L10 15L15 20L20 15L15 10L20 5L15 0L10 5Z" fill="none" stroke="black" stroke-width="0.6630200563567048"/></g><rect x="0" y="241.33333333333334" width="60.333333333333336" height="60.333333333333336" fill="white" stroke="none" stroke-width="2"/><g transform="translate(30.17,241.33) scale(1.5085000000000002) rotate(0)"><path fill-rule="evenodd" clip-rule="evenodd" d="M10 20C15.5228 20 20 15.5228 20 10C20 4.47715 15.5228 0 10 0C4.47715 0 0 4.47715 0 10C0 15.5228 4.47715 20 10 20ZM10 17C13.866 17 17 13.866 17 10C17 6.13401 13.866 3 10 3C6.13401 3 3 6.13401 3 10C3 13.866 6.13401 17 10 17Z" fill="none" stroke="black" stroke-width="1.325820351342393"/></g><g transform="translate(30.17,271.5) scale(1.5085000000000002) rotate(0)"><path d="M10 5L5 0L0 5L5 10L0 15L5 20L10 15L15 20L20 15L15 10L20 5L15 0L10 5Z" fill="none" stroke="black" stroke-width="1.325820351342393"/></g><g transform="translate(60.33,241.33) scale(3.0164999999999997) rotate(0)"><path d="M10 5L5 0L0 5L5 10L0 15L5 20L10 15L15 20L20 15L15 10L20 5L15 0L10 5Z" fill="none" stroke="black" stroke-width="0.6630200563567048"/></g><g transform="translate(241.33,241.33) scale(3.0164999999999997) rotate(0)"><path fill-rule="evenodd" clip-rule="evenodd" d="M10 20C15.5228 20 20 15.5228 20 10C20 4.47715 15.5228 0 10 0C4.47715 0 0 4.47715 0 10C0 15.5228 4.47715 20 10 20ZM10 17C13.866 17 17 13.866 17 10C17 6.13401 13.866 3 10 3C6.13401 3 3 6.13401 3 10C3 13.866 6.13401 17 10 17Z" fill="none" stroke="black" stroke-width="0.6630200563567048"/></g><g transform="translate(362,241.33) scale(3.0164999999999997) rotate(0)"><path fill-rule="evenodd" clip-rule="evenodd" d="M10 20C15.5228 20 20 15.5228 20 10C20 4.47715 15.5228 0 10 0C4.47715 0 0 4.47715 0 10C0 15.5228 4.47715 20 10 20ZM10 17C13.866 17 17 13.866 17 10C17 6.13401 13.866 3 10 3C6.13401 3 3 6.13401 3 10C3 13.866 6.13401 17 10 17Z" fill="none" stroke="black" stroke-width="0.6630200563567048"/></g><g transform="translate(422.33,241.33) scale(3.0164999999999997) rotate(0)"><path d="M10 5L5 0L0 5L5 10L0 15L5 20L10 15L15 20L20 15L15 10L20 5L15 0L10 5Z" fill="none" stroke="black" stroke-width="0.6630200563567048"/></g><g transform="translate(482.67,241.33) scale(3.0164999999999997) rotate(0)"><path d="M10 5L5 0L0 5L5 10L0 15L5 20L10 15L15 20L20 15L15 10L20 5L15 0L10 5Z" fill="none" stroke="black" stroke-width="0.6630200563567048"/></g><g transform="translate(60.33,301.67) scale(3.0164999999999997) rotate(0)"><path fill-rule="evenodd" clip-rule="evenodd" d="M10 20C15.5228 20 20 15.5228 20 10C20 4.47715 15.5228 0 10 0C4.47715 0 0 4.47715 0 10C0 15.5228 4.47715 20 10 20ZM10 17C13.866 17 17 13.866 17 10C17 6.13401 13.866 3 10 3C6.13401 3 3 6.13401 3 10C3 13.866 6.13401 17 10 17Z" fill="none" stroke="black" stroke-width="0.6630200563567048"/></g><rect x="362" y="301.6666666666667" width="60.333333333333336" height="60.333333333333336" fill="white" stroke="none" stroke-width="2"/><g transform="translate(362,301.67) scale(1.5085000000000002) rotate(0)"><path d="M10 5L5 0L0 5L5 10L0 15L5 20L10 15L15 20L20 15L15 10L20 5L15 0L10 5Z" fill="none" stroke="black" stroke-width="1.325820351342393"/></g><g transform="translate(392.17,331.83) scale(1.5085000000000002) rotate(0)"><path fill-rule="evenodd" clip-rule="evenodd" d="M10 20C15.5228 20 20 15.5228 20 10C20 4.47715 15.5228 0 10 0C4.47715 0 0 4.47715 0 10C0 15.5228 4.47715 20 10 20ZM10 17C13.866 17 17 13.866 17 10C17 6.13401 13.866 3 10 3C6.13401 3 3 6.13401 3 10C3 13.866 6.13401 17 10 17Z" fill="none" stroke="black" stroke-width="1.325820351342393"/></g><rect x="543" y="301.6666666666667" width="60.333333333333336" height="60.333333333333336" fill="white" stroke="none" stroke-width="2"/><g transform="translate(543,331.83) scale(1.5085000000000002) rotate(0)"><path d="M10 5L5 0L0 5L5 10L0 15L5 20L10 15L15 20L20 15L15 10L20 5L15 0L10 5Z" fill="none" stroke="black" stroke-width="1.325820351342393"/></g></g></svg>